<svg width="31" height="31" viewBox="0 0 31 31" fill="none" xmlns="http://www.w3.org/2000/svg">
<path d="M28.6825 3.15579C28.3135 2.68625 27.6898 3.42156 26.908 3.58103C26.1261 3.7405 23.6664 1.68515 23.0426 0.737208C22.4189 -0.210735 21.3735 0.577737 21.8918 1.2599C22.4101 1.94207 21.7864 2.15469 21.7864 3.10263C21.7864 4.05058 21.1627 4.05058 21.2681 4.67958C21.3735 5.30859 20.4335 5.20229 19.801 5.3086C19.1773 5.41491 19.8537 6.04391 19.1246 6.36284C18.3954 6.68178 18.4482 7.20448 18.8083 7.4171C19.1773 7.62972 18.9138 8.31189 18.8083 8.79029C18.7029 9.26869 19.2739 8.8966 19.6956 8.4182C20.1085 7.94866 20.5478 8.64854 20.6356 8.20557C20.741 7.68288 19.5375 7.41711 19.5902 6.88555C19.6429 6.36285 20.4247 7.04501 21.0573 6.72608C21.6898 6.40714 22.9372 6.67293 23.7191 7.35509C24.5009 8.03725 24.7118 7.78033 24.8699 6.9387C25.028 6.09707 26.2315 5.72499 27.4263 5.72499C28.621 5.72499 28.7352 5.14026 28.3663 4.88334C27.9973 4.61757 30.3516 3.09377 30.2989 2.66852C30.2462 2.24328 29.0427 3.61647 28.6825 3.13806V3.15579ZM19.0719 10.3761C18.5536 10.6419 18.1846 12.272 18.7556 12.7415C19.3266 13.2199 17.8156 14.1147 17.8684 15.1158C17.9211 16.1169 16.9284 16.1169 16.7703 16.8522C16.6121 17.5876 16.0411 17.4369 15.1539 18.1191C14.2666 18.8013 13.7922 18.0128 14.0031 17.5433C14.2139 17.0649 12.6501 17.809 12.6941 18.9696C12.7468 20.1302 11.2358 20.2365 11.596 20.7592C11.9649 21.2907 10.4452 21.6008 10.4979 21.1224C10.5506 20.6529 9.55788 20.9098 8.35436 21.3882C7.15083 21.8666 6.42172 20.8655 5.74528 21.5476C5.06885 22.2298 3.91801 23.4435 3.03074 23.603C2.14347 23.7625 2.65299 24.8433 3.03074 24.6573C3.65447 24.3383 4.64717 24.6573 4.96342 24.1789C5.27967 23.7005 7.83605 23.1246 9.39975 23.0714C10.9635 23.0183 10.0235 23.8068 10.1289 24.6484C10.2343 25.49 11.5433 25.3306 12.2197 24.5421C12.8961 23.7536 13.4233 23.8068 12.8435 23.3284C12.2724 22.8588 12.9488 22.4336 13.3705 23.0626C13.7834 23.6916 15.0923 23.7448 15.6194 22.9031C16.1377 22.0615 16.2959 23.0626 16.9284 23.0094C17.5521 22.9563 17.9211 21.3793 17.9738 21.9552C18.0265 22.531 19.0192 22.3804 19.6429 21.6894C20.2666 21.0072 19.6956 19.7935 20.1173 19.1645C20.5389 18.5355 20.9519 17.2155 20.539 16.427C20.1173 15.6385 21.4789 15.107 22.1554 14.4779C22.8318 13.8489 21.3735 10.6862 21.3208 9.73824C21.2681 8.7903 19.599 10.1103 19.0719 10.3672V10.3761ZM7.58134 24.0637C7.3705 24.6395 6.74676 24.3826 5.9122 24.5421C5.07764 24.7016 5.05129 26.7126 5.64866 26.9075C6.11426 27.067 6.48323 27.067 6.64135 26.4291C6.79948 25.7912 7.63402 25.5875 8.15232 25.8444C8.67063 26.1102 9.35584 25.0559 9.35584 24.2675C9.35584 23.479 7.79218 23.479 7.58134 24.0548V24.0637ZM3.97952 26.119C3.97952 25.5963 2.82871 25.6938 2.776 25.2243C2.72329 24.7459 1.94142 25.0116 1.15957 25.5963C0.377716 26.1811 0.11421 26.2785 0.430464 26.8632C0.746718 27.4391 1.21232 26.9164 1.42316 26.3405C1.63399 25.7647 2.15229 27.1822 1.68669 28.1301C1.21231 29.078 1.7482 30.4158 2.36314 30.2918C2.88145 30.1854 3.56662 28.2896 4.34847 27.2885C5.13032 26.2874 3.97952 26.6595 3.97952 26.1279V26.119Z" fill="white" stroke="#C1C7CA" stroke-width="0.6" stroke-miterlimit="10"/>
</svg>
