<svg width="300" height="300" viewBox="0 0 300 300" fill="none" xmlns="http://www.w3.org/2000/svg">
<path d="M275 214.217V63.342C275 48.342 262.75 37.217 247.875 38.467H247.125C220.875 40.717 181 49.1254 158.75 63.1254L156.625 64.5004C153 66.7504 147 66.7504 143.375 64.5004L140.25 62.6254C118 48.7504 78.25 40.467 52 38.342C37.125 37.092 25 48.342 25 63.217V214.217C25 226.217 34.75 237.467 46.75 238.967L50.375 239.467C77.5 243.092 119.375 251.875 143.375 265L143.875 265.25C147.25 267.125 152.625 267.125 155.875 265.25C179.875 252 221.875 243.092 249.125 239.467L253.25 238.967C265.25 237.467 275 226.217 275 214.217Z" stroke="#697074" stroke-width="18.75" stroke-linecap="round" stroke-linejoin="round"/>
<path d="M150 68.625V256.125" stroke="#697074" stroke-width="18.75" stroke-linecap="round" stroke-linejoin="round"/>
<path d="M96.875 106.125H68.75" stroke="#697074" stroke-width="18.75" stroke-linecap="round" stroke-linejoin="round"/>
<path d="M106.25 143.625H68.75" stroke="#697074" stroke-width="18.75" stroke-linecap="round" stroke-linejoin="round"/>
</svg>
