<svg width="300" height="300" viewBox="0 0 300 300" fill="none" xmlns="http://www.w3.org/2000/svg">
<path d="M150 275C219.036 275 275 219.036 275 150C275 80.9644 219.036 25 150 25C80.9644 25 25 80.9644 25 150C25 219.036 80.9644 275 150 275Z" stroke="#697074" stroke-width="18.75" stroke-linecap="round" stroke-linejoin="round"/>
<path d="M100 37.5H112.5C88.125 110.5 88.125 189.5 112.5 262.5H100" stroke="#697074" stroke-width="18.75" stroke-linecap="round" stroke-linejoin="round"/>
<path d="M187.5 37.5C211.875 110.5 211.875 189.5 187.5 262.5" stroke="#697074" stroke-width="18.75" stroke-linecap="round" stroke-linejoin="round"/>
<path d="M37.5 200V187.5C110.5 211.875 189.5 211.875 262.5 187.5V200" stroke="#697074" stroke-width="18.75" stroke-linecap="round" stroke-linejoin="round"/>
<path d="M37.5 112.495C110.5 88.1201 189.5 88.1201 262.5 112.495" stroke="#697074" stroke-width="18.75" stroke-linecap="round" stroke-linejoin="round"/>
</svg>
