<svg width="300" height="300" viewBox="0 0 300 300" fill="none" xmlns="http://www.w3.org/2000/svg">
<path fill-rule="evenodd" clip-rule="evenodd" d="M223.371 244.358L184.472 212.963C195.637 204.932 204.333 193.685 209.206 180.579H144.47V131.64H259.947C261.621 139.581 262.501 147.814 262.501 156.253C262.501 160.422 262.286 164.54 261.867 168.598C258.772 198.562 244.536 225.219 223.371 244.358Z" fill="#4285F4"/>
<mask id="mask0_593_7227" style="mask-type:alpha" maskUnits="userSpaceOnUse" x="37" y="179" width="187" height="97">
<path d="M37.9546 210.244L77.8273 179.284C87.343 206.523 113.264 226.064 143.75 226.064C158.929 226.064 172.976 221.219 184.43 212.992L223.361 244.366C202.299 263.407 174.378 275.003 143.75 275.003C97.6077 275.003 57.6124 248.686 37.9546 210.244Z" fill="white"/>
</mask>
<g mask="url(#mask0_593_7227)">
<path d="M37.9546 210.244L77.8273 179.284C87.343 206.523 113.264 226.064 143.75 226.064C158.929 226.064 172.976 221.219 184.43 212.992L223.361 244.366C202.299 263.407 174.378 275.003 143.75 275.003C97.6077 275.003 57.6124 248.686 37.9546 210.244Z" fill="#34A853"/>
</g>
<mask id="mask1_593_7227" style="mask-type:alpha" maskUnits="userSpaceOnUse" x="25" y="101" width="54" height="110">
<path d="M38.4649 101.269L78.3057 131.889C75.4824 139.472 73.9394 147.678 73.9394 156.245C73.9394 164.631 75.4182 172.672 78.1292 180.121L38.0368 210.395C29.703 194.158 25 175.751 25 156.245C25 136.407 29.8642 117.706 38.4649 101.269Z" fill="white"/>
</mask>
<g mask="url(#mask1_593_7227)">
<path d="M38.4649 101.269L78.3057 131.889C75.4824 139.472 73.9394 147.678 73.9394 156.245C73.9394 164.631 75.4182 172.672 78.1292 180.121L38.0368 210.395C29.703 194.158 25 175.751 25 156.245C25 136.407 29.8642 117.706 38.4649 101.269Z" fill="#E8C33D"/>
</g>
<mask id="mask2_593_7227" style="mask-type:alpha" maskUnits="userSpaceOnUse" x="38" y="37" width="190" height="95">
<path d="M78.3045 131.893L38.4636 101.273C58.2975 63.3667 98.0023 37.499 143.749 37.499C176.641 37.499 206.41 50.8721 227.915 72.4777L193.435 107.21C180.777 94.3864 163.191 86.4384 143.749 86.4384C113.76 86.4384 88.1879 105.347 78.3045 131.893Z" fill="white"/>
</mask>
<g mask="url(#mask2_593_7227)">
<path d="M78.3045 131.893L38.4636 101.273C58.2975 63.3667 98.0023 37.499 143.749 37.499C176.641 37.499 206.41 50.8721 227.915 72.4777L193.435 107.21C180.777 94.3864 163.191 86.4384 143.749 86.4384C113.76 86.4384 88.1879 105.347 78.3045 131.893Z" fill="#EA4335"/>
</g>
</svg>
