<svg width="300" height="300" viewBox="0 0 300 300" fill="none" xmlns="http://www.w3.org/2000/svg">
<path d="M88.29 170.37C87.21 169.41 87.69 167.625 89.1 167.34L91.545 166.845C94.2 166.305 96.96 166.755 99.3 168.105L104.415 171.06C104.91 171.345 105.51 171.315 105.975 170.985L133.275 151.245L105.27 140.205C102.975 139.305 102.285 136.905 104.04 135.18C104.655 134.58 105.465 134.28 106.29 134.31L153.345 136.35L153.555 136.575L164.625 128.565C169.545 125.01 176.025 124.485 181.455 127.185C184.965 128.94 185.25 133.845 181.92 135.93L162.045 148.365V190.365C162.045 192.18 160.95 193.89 159.105 194.595C156.69 195.525 153.99 194.025 153.195 191.565L143.055 160.245L110.625 180.54C105.06 184.02 100.335 188.76 97.08 194.46C91.635 204 85.59 220.245 88.755 242.34C88.905 243.375 90.36 243.57 90.72 242.595C95.16 230.4 106.695 221.37 120.195 220.755C139.11 219.9 154.695 234.975 154.695 253.695C154.695 257.235 154.14 260.625 153.105 263.82C151.2 269.685 155.325 275.73 161.49 275.73H210.15C215.145 275.73 219.18 271.68 219.18 266.7V217.68C219.18 211.32 225.525 207.105 231.51 209.28C235.02 210.555 238.8 211.26 242.76 211.26C268.305 211.26 287.055 182.22 267.825 155.37C267.24 154.56 266.52 153.84 265.71 153.255C253.725 144.66 241.35 143.64 231.3 147.375C225.42 149.565 219.18 145.17 219.18 138.9V89.88C219.18 84.885 215.13 80.85 210.15 80.85H161.13C154.86 80.85 150.465 74.61 152.655 68.73C156.39 58.68 155.355 46.305 146.775 34.32C146.19 33.51 145.47 32.79 144.66 32.205C117.795 12.975 88.77 31.725 88.77 57.27C88.77 61.215 89.46 65.01 90.75 68.52C92.925 74.505 88.71 80.85 82.35 80.85H33.315C28.32 80.85 24.285 84.9 24.285 89.88V135.87C24.285 163.845 47.82 186.885 75.705 184.575C82.785 183.99 89.7 181.77 96.09 177.33" fill="white"/>
</svg>
